<svg width="20" height="20" viewBox="0 0 20 20" fill="none" xmlns="http://www.w3.org/2000/svg">
<path d="M12.0833 11.4667V3.75002C12.0833 3.19749 11.8638 2.66758 11.4731 2.27688C11.0824 1.88618 10.5525 1.66669 10 1.66669C9.44747 1.66669 8.91756 1.88618 8.52686 2.27688C8.13616 2.66758 7.91667 3.19749 7.91667 3.75002V11.4667C7.24773 11.9136 6.74027 12.5639 6.46923 13.3214C6.19818 14.0788 6.17793 14.9034 6.41146 15.6733C6.645 16.4431 7.11993 17.1175 7.76611 17.5968C8.4123 18.076 9.19549 18.3347 10 18.3347C10.8045 18.3347 11.5877 18.076 12.2339 17.5968C12.8801 17.1175 13.355 16.4431 13.5885 15.6733C13.8221 14.9034 13.8018 14.0788 13.5308 13.3214C13.2597 12.5639 12.7523 11.9136 12.0833 11.4667Z" stroke="#14181F" stroke-width="1.5" stroke-linecap="round" stroke-linejoin="round"/>
<path d="M10 8.33331L11.6667 8.33331" stroke="#14181F" stroke-width="1.5" stroke-linecap="round" stroke-linejoin="round"/>
<path d="M10 5.83331L11.6667 5.83331" stroke="#14181F" stroke-width="1.5" stroke-linecap="round" stroke-linejoin="round"/>
</svg>
