<svg width="20" height="20" viewBox="0 0 20 20" fill="none" xmlns="http://www.w3.org/2000/svg">
<path d="M10 16.6667H16.6667" stroke="#FDCC4F" stroke-width="2" stroke-linecap="round" stroke-linejoin="round"/>
<path d="M13.4198 3.89032C13.5965 3.7137 13.8061 3.57361 14.0369 3.47803C14.2676 3.38245 14.5149 3.33325 14.7647 3.33325C15.0145 3.33325 15.2618 3.38245 15.4926 3.47803C15.7233 3.57361 15.933 3.7137 16.1096 3.89032C16.2862 4.06693 16.4263 4.27659 16.5219 4.50735C16.6175 4.7381 16.6666 4.98542 16.6666 5.23519C16.6666 5.48495 16.6175 5.73227 16.5219 5.96302C16.4263 6.19378 16.2862 6.40345 16.1096 6.58006L7.03171 15.6579L3.33331 16.6666L4.34197 12.9682L13.4198 3.89032Z" stroke="#FDCC4F" stroke-width="2" stroke-linecap="round" stroke-linejoin="round"/>
</svg>
