<svg width="20" height="20" viewBox="0 0 20 20" fill="none" xmlns="http://www.w3.org/2000/svg">
<path d="M14.1667 13.523C16.1087 13.9806 17.5001 15.2153 17.5001 16.6667" stroke="#14181F" stroke-width="1.5" stroke-linecap="round" stroke-linejoin="round"/>
<path d="M2.5 16.6666C2.5 14.8257 4.73858 13.3333 7.5 13.3333C10.2614 13.3333 12.5 14.8257 12.5 16.6666" stroke="#14181F" stroke-width="1.5" stroke-linecap="round" stroke-linejoin="round"/>
<path d="M12.5 10.8334C14.3409 10.8334 15.8333 9.34097 15.8333 7.50002C15.8333 5.65907 14.3409 4.16669 12.5 4.16669" stroke="#14181F" stroke-width="1.5" stroke-linecap="round" stroke-linejoin="round"/>
<path d="M7.50008 10.8334C9.34103 10.8334 10.8334 9.34097 10.8334 7.50002C10.8334 5.65907 9.34103 4.16669 7.50008 4.16669C5.65913 4.16669 4.16675 5.65907 4.16675 7.50002C4.16675 9.34097 5.65913 10.8334 7.50008 10.8334Z" stroke="#14181F" stroke-width="1.5" stroke-linecap="round" stroke-linejoin="round"/>
</svg>
