<svg width="20" height="20" viewBox="0 0 20 20" fill="none" xmlns="http://www.w3.org/2000/svg">
<path d="M2.5 4.5C2.5 3.39543 3.39543 2.5 4.5 2.5H15.5C16.6046 2.5 17.5 3.39543 17.5 4.5V15.5C17.5 16.6046 16.6046 17.5 15.5 17.5H4.5C3.39543 17.5 2.5 16.6046 2.5 15.5V4.5Z" stroke="#FDCC4F" stroke-width="2" stroke-linecap="round" stroke-linejoin="round"/>
<path d="M11.25 13.3333C11.25 14.0236 10.6904 14.5833 10 14.5833C9.30964 14.5833 8.75 14.0236 8.75 13.3333C8.75 12.6429 9.30964 12.0833 10 12.0833C10.6904 12.0833 11.25 12.6429 11.25 13.3333Z" fill="#FDCC4F"/>
<path d="M8.82149 6.59526C9.14618 6.27057 9.5715 6.10785 9.99706 6.10711C10.4246 6.10636 10.8523 6.26907 11.1785 6.59526C11.5039 6.9207 11.6667 7.34724 11.6667 7.77377C11.6667 8.20031 11.5039 8.62685 11.1785 8.95228C10.8523 9.27847 10.4246 9.44118 9.99706 9.44044L10 10.2738" stroke="#FDCC4F" stroke-width="2" stroke-linecap="round" stroke-linejoin="round"/>
</svg>
