<svg width="20" height="20" viewBox="0 0 20 20" fill="none" xmlns="http://www.w3.org/2000/svg">
<path d="M10 3.33333C11.8334 3.33333 13.3334 4.83333 13.3334 6.66667C13.3334 8.41667 11.5834 11.25 10 13.25C8.41671 11.1667 6.66671 8.41667 6.66671 6.66667C6.66671 4.83333 8.16671 3.33333 10 3.33333ZM10 1.66667C7.25004 1.66667 5.00004 3.91667 5.00004 6.66667C5.00004 10.4167 10 15.8333 10 15.8333C10 15.8333 15 10.3333 15 6.66667C15 3.91667 12.75 1.66667 10 1.66667ZM10 5C9.08337 5 8.33337 5.75 8.33337 6.66667C8.33337 7.58333 9.08337 8.33333 10 8.33333C10.9167 8.33333 11.6667 7.58333 11.6667 6.66667C11.6667 5.75 10.9167 5 10 5ZM16.6667 15.8333C16.6667 17.6667 13.6667 19.1667 10 19.1667C6.33337 19.1667 3.33337 17.6667 3.33337 15.8333C3.33337 14.75 4.33337 13.8333 5.91671 13.1667L6.41671 13.9167C5.58337 14.3333 5.00004 14.8333 5.00004 15.4167C5.00004 16.5833 7.25004 17.5 10 17.5C12.75 17.5 15 16.5833 15 15.4167C15 14.8333 14.4167 14.3333 13.5 13.9167L14 13.1667C15.6667 13.8333 16.6667 14.75 16.6667 15.8333Z" fill="black"/>
</svg>
