<svg width="20" height="20" viewBox="0 0 20 20" fill="none" xmlns="http://www.w3.org/2000/svg">
<path d="M9.89655 18.5218C9.89655 18.5252 9.90328 18.532 9.90328 18.532C9.90328 18.532 15.7931 9.37326 15.7931 6.36347C15.7931 1.93389 12.8078 0.00680949 9.89655 0C6.98526 0.00680949 4 1.93389 4 6.36347C4 9.37326 9.89319 18.532 9.89319 18.532L9.89655 18.5218ZM7.85595 6.11152C7.85595 4.96752 8.77036 4.04143 9.89991 4.04143C11.0295 4.04143 11.9439 4.96752 11.9439 6.11152C11.9439 7.25551 11.0261 8.1816 9.89655 8.1816C8.77036 8.1816 7.85595 7.25551 7.85595 6.11152Z" fill="#FDCC4F"/>
</svg>
