<svg width="20" height="20" viewBox="0 0 20 20" fill="none" xmlns="http://www.w3.org/2000/svg">
<path d="M2.91667 18.3333V14.1667M2.91667 5.83333V1.66666M0.833336 3.75H5M0.833336 16.25H5M17.0833 5.83333V1.66666M15 3.75H19.1667M10 2.5L8.68249 5.92553C8.40048 6.65876 8.25947 7.02537 8.0402 7.33375C7.84586 7.60706 7.60707 7.84585 7.33376 8.04019C7.02538 8.25947 6.65876 8.40047 5.92553 8.68249L2.5 10L5.92553 11.3175C6.65876 11.5995 7.02538 11.7405 7.33376 11.9598C7.60707 12.1541 7.84586 12.3929 8.0402 12.6662C8.25947 12.9746 8.40048 13.3412 8.68249 14.0745L10 17.5L11.7157 13.7827C12.0056 13.1545 12.1506 12.8404 12.3554 12.574C12.5371 12.3378 12.7529 12.1299 12.9958 11.9573C13.2697 11.7626 13.589 11.6296 14.2277 11.3635L17.5 10L14.2277 8.63654C13.589 8.37042 13.2697 8.23735 12.9958 8.0427C12.7529 7.87007 12.5371 7.66222 12.3554 7.42599C12.1506 7.15962 12.0056 6.8455 11.7157 6.21725L10 2.5Z" stroke="black" stroke-width="1.5" stroke-linecap="round" stroke-linejoin="round"/>
</svg>
