<svg width="20" height="21" viewBox="0 0 20 21" fill="none" xmlns="http://www.w3.org/2000/svg">
<path d="M17.5 15.0371C17.5 15.3809 17.3563 15.7106 17.1006 15.9537C16.8449 16.1968 16.498 16.3334 16.1364 16.3334H3.86364C3.50198 16.3334 3.15513 16.1968 2.8994 15.9537C2.64367 15.7106 2.5 15.3809 2.5 15.0371V7.90749C2.5 7.56369 2.64367 7.23397 2.8994 6.99087C3.15513 6.74777 3.50198 6.61119 3.86364 6.61119H6.59091L7.95455 4.66675H12.0455L13.4091 6.61119H16.1364C16.498 6.61119 16.8449 6.74777 17.1006 6.99087C17.3563 7.23397 17.5 7.56369 17.5 7.90749V15.0371Z" stroke="#FDCC4F" stroke-width="2" stroke-linecap="round" stroke-linejoin="round"/>
<path d="M10 13.8333C11.3807 13.8333 12.5 12.714 12.5 11.3333C12.5 9.95254 11.3807 8.83325 10 8.83325C8.61929 8.83325 7.5 9.95254 7.5 11.3333C7.5 12.714 8.61929 13.8333 10 13.8333Z" stroke="#FDCC4F" stroke-width="2" stroke-linecap="round" stroke-linejoin="round"/>
</svg>
